<svg xmlns="http://www.w3.org/2000/svg" width="1600" height="900" viewBox="0 0 1600 900">
<title>Subagenter og parallelitet</title>
<defs><marker id="pil-acc" viewBox="0 0 10 10" refX="8" refY="5" markerWidth="4" markerHeight="4" orient="auto-start-reverse"><path d="M0 0 L10 5 L0 10 Z" fill="#1f4e8c"/></marker><marker id="pil-ink" viewBox="0 0 10 10" refX="8" refY="5" markerWidth="4" markerHeight="4" orient="auto-start-reverse"><path d="M0 0 L10 5 L0 10 Z" fill="#1b1f24"/></marker><marker id="pil-ok" viewBox="0 0 10 10" refX="8" refY="5" markerWidth="4" markerHeight="4" orient="auto-start-reverse"><path d="M0 0 L10 5 L0 10 Z" fill="#1e6b3a"/></marker><marker id="pil-fejl" viewBox="0 0 10 10" refX="8" refY="5" markerWidth="4" markerHeight="4" orient="auto-start-reverse"><path d="M0 0 L10 5 L0 10 Z" fill="#9b2c2c"/></marker><marker id="pil-daemp" viewBox="0 0 10 10" refX="8" refY="5" markerWidth="4" markerHeight="4" orient="auto-start-reverse"><path d="M0 0 L10 5 L0 10 Z" fill="#5b6470"/></marker><marker id="pil-adv" viewBox="0 0 10 10" refX="8" refY="5" markerWidth="4" markerHeight="4" orient="auto-start-reverse"><path d="M0 0 L10 5 L0 10 Z" fill="#8a6100"/></marker></defs>
<rect width="1600" height="900" fill="#fbfaf7"/>
<rect x="60" y="52" width="10" height="78" rx="5" fill="#1f4e8c" stroke="#1f4e8c" stroke-width="1"/>
<text x="92" y="82" font-family="Arial, Helvetica, sans-serif" font-size="24" font-weight="bold" fill="#1f4e8c" text-anchor="start" letter-spacing="2">MODUL 07</text>
<text x="92" y="126" font-family="Arial, Helvetica, sans-serif" font-size="44" font-weight="bold" fill="#1b1f24" text-anchor="start">Subagenter og parallelitet</text>
<text x="1540" y="82" font-family="Arial, Helvetica, sans-serif" font-size="22" font-weight="normal" fill="#5b6470" text-anchor="end">Agentkursus</text>
<circle cx="800" cy="214.0" r="18.0" fill="#e8eef8" stroke="#1f4e8c" stroke-width="7.199999999999999"/><path d="M764.0 298.0 V268.0 A36.0 36.0 0 0 1 836.0 268.0 V298.0 Z" fill="#e8eef8" stroke="#1f4e8c" stroke-width="7.199999999999999" stroke-linecap="round" stroke-linejoin="round"/><text x="800" y="340" font-family="Arial, Helvetica, sans-serif" font-size="24" font-weight="bold" fill="#1b1f24" text-anchor="middle">Én disponent, fire sager</text><path d="M800 360 L330 430" fill="none" stroke="#d8d5cf" stroke-width="4" stroke-linecap="round" stroke-linejoin="round" marker-end="url(#pil-daemp)"/><rect x="220" y="560" width="220" height="16" rx="4" fill="#e8eef8" stroke="#1f4e8c" stroke-width="4.800000000000001"/><path d="M240 576 V630 M420 576 V630" fill="none" stroke="#1f4e8c" stroke-width="4.800000000000001" stroke-linecap="round" stroke-linejoin="round"/><circle cx="290" cy="476.0" r="12.0" fill="#e8eef8" stroke="#1f4e8c" stroke-width="4.800000000000001"/><path d="M266.0 532.0 V512.0 A24.0 24.0 0 0 1 314.0 512.0 V532.0 Z" fill="#e8eef8" stroke="#1f4e8c" stroke-width="4.800000000000001" stroke-linecap="round" stroke-linejoin="round"/><path d="M340 509 V550 H420 V501 H380.0 L373.6 487 H348 A8 8 0 0 0 340 495Z" fill="#e8eef8" stroke="#1f4e8c" stroke-width="3" stroke-linecap="round" stroke-linejoin="round"/><text x="330" y="680" font-family="Arial, Helvetica, sans-serif" font-size="22" font-weight="bold" fill="#1f4e8c" text-anchor="middle">Sag 1</text><path d="M330 690 L330 720" fill="none" stroke="#d8d5cf" stroke-width="3" stroke-linecap="round" stroke-linejoin="round"/><path d="M800 360 L643 430" fill="none" stroke="#d8d5cf" stroke-width="4" stroke-linecap="round" stroke-linejoin="round" marker-end="url(#pil-daemp)"/><rect x="533" y="560" width="220" height="16" rx="4" fill="#e8eef8" stroke="#1e6b3a" stroke-width="4.800000000000001"/><path d="M553 576 V630 M733 576 V630" fill="none" stroke="#1e6b3a" stroke-width="4.800000000000001" stroke-linecap="round" stroke-linejoin="round"/><circle cx="603" cy="476.0" r="12.0" fill="#e4f2e8" stroke="#1e6b3a" stroke-width="4.800000000000001"/><path d="M579.0 532.0 V512.0 A24.0 24.0 0 0 1 627.0 512.0 V532.0 Z" fill="#e4f2e8" stroke="#1e6b3a" stroke-width="4.800000000000001" stroke-linecap="round" stroke-linejoin="round"/><path d="M653 509 V550 H733 V501 H693.0 L686.6 487 H661 A8 8 0 0 0 653 495Z" fill="#e4f2e8" stroke="#1e6b3a" stroke-width="3" stroke-linecap="round" stroke-linejoin="round"/><text x="643" y="680" font-family="Arial, Helvetica, sans-serif" font-size="22" font-weight="bold" fill="#1e6b3a" text-anchor="middle">Sag 2</text><path d="M643 690 L643 720" fill="none" stroke="#d8d5cf" stroke-width="3" stroke-linecap="round" stroke-linejoin="round"/><path d="M800 360 L956 430" fill="none" stroke="#d8d5cf" stroke-width="4" stroke-linecap="round" stroke-linejoin="round" marker-end="url(#pil-daemp)"/><rect x="846" y="560" width="220" height="16" rx="4" fill="#e8eef8" stroke="#8a6100" stroke-width="4.800000000000001"/><path d="M866 576 V630 M1046 576 V630" fill="none" stroke="#8a6100" stroke-width="4.800000000000001" stroke-linecap="round" stroke-linejoin="round"/><circle cx="916" cy="476.0" r="12.0" fill="#fbf1d6" stroke="#8a6100" stroke-width="4.800000000000001"/><path d="M892.0 532.0 V512.0 A24.0 24.0 0 0 1 940.0 512.0 V532.0 Z" fill="#fbf1d6" stroke="#8a6100" stroke-width="4.800000000000001" stroke-linecap="round" stroke-linejoin="round"/><path d="M966 509 V550 H1046 V501 H1006.0 L999.6 487 H974 A8 8 0 0 0 966 495Z" fill="#fbf1d6" stroke="#8a6100" stroke-width="3" stroke-linecap="round" stroke-linejoin="round"/><text x="956" y="680" font-family="Arial, Helvetica, sans-serif" font-size="22" font-weight="bold" fill="#8a6100" text-anchor="middle">Sag 3</text><path d="M956 690 L956 720" fill="none" stroke="#d8d5cf" stroke-width="3" stroke-linecap="round" stroke-linejoin="round"/><path d="M800 360 L1269 430" fill="none" stroke="#d8d5cf" stroke-width="4" stroke-linecap="round" stroke-linejoin="round" marker-end="url(#pil-daemp)"/><rect x="1159" y="560" width="220" height="16" rx="4" fill="#e8eef8" stroke="#5b6470" stroke-width="4.800000000000001"/><path d="M1179 576 V630 M1359 576 V630" fill="none" stroke="#5b6470" stroke-width="4.800000000000001" stroke-linecap="round" stroke-linejoin="round"/><circle cx="1229" cy="476.0" r="12.0" fill="#f0eee9" stroke="#5b6470" stroke-width="4.800000000000001"/><path d="M1205.0 532.0 V512.0 A24.0 24.0 0 0 1 1253.0 512.0 V532.0 Z" fill="#f0eee9" stroke="#5b6470" stroke-width="4.800000000000001" stroke-linecap="round" stroke-linejoin="round"/><path d="M1279 509 V550 H1359 V501 H1319.0 L1312.6 487 H1287 A8 8 0 0 0 1279 495Z" fill="#f0eee9" stroke="#5b6470" stroke-width="3" stroke-linecap="round" stroke-linejoin="round"/><text x="1269" y="680" font-family="Arial, Helvetica, sans-serif" font-size="22" font-weight="bold" fill="#5b6470" text-anchor="middle">Sag 4</text><path d="M1269 690 L1269 720" fill="none" stroke="#d8d5cf" stroke-width="3" stroke-linecap="round" stroke-linejoin="round"/><path d="M330 725 H1269" fill="none" stroke="#d8d5cf" stroke-width="4" stroke-linecap="round" stroke-linejoin="round"/><path d="M800 725 L800 745" fill="none" stroke="#1f4e8c" stroke-width="5" stroke-linecap="round" stroke-linejoin="round" marker-end="url(#pil-acc)"/><text x="800" y="780" font-family="Arial, Helvetica, sans-serif" font-size="22" font-weight="bold" fill="#1b1f24" text-anchor="middle">Samlet resultat</text><rect x="1230" y="190" width="310" height="150" rx="10" fill="#f9e5e5" stroke="#9b2c2c" stroke-width="2"/><path d="M1340 264 V310 H1430 V256 H1385.0 L1377.8 242 H1348 A8 8 0 0 0 1340 250Z" fill="#ffffff" stroke="#9b2c2c" stroke-width="3" stroke-linecap="round" stroke-linejoin="round"/><path d="M1270 225 L1335 255" fill="none" stroke="#9b2c2c" stroke-width="5" stroke-linecap="round" stroke-linejoin="round" marker-end="url(#pil-fejl)"/><path d="M1500 225 L1435 255" fill="none" stroke="#9b2c2c" stroke-width="5" stroke-linecap="round" stroke-linejoin="round" marker-end="url(#pil-fejl)"/><text x="1385" y="325" font-family="Arial, Helvetica, sans-serif" font-size="18" font-weight="bold" fill="#9b2c2c" text-anchor="middle">Samme fil: sidste version vinder</text><path d="M90.0 300.0 A60 60 0 0 1 210 300" fill="none" stroke="#d8d5cf" stroke-width="9.600000000000001" stroke-linecap="round" stroke-linejoin="round"/><path d="M90.0 300.0 A60 60 0 1 1 192.42640687119285 257.57359312880715" fill="none" stroke="#8a6100" stroke-width="9.600000000000001" stroke-linecap="round" stroke-linejoin="round"/><path d="M150 300 L192.42640687119285 257.57359312880715" fill="none" stroke="#1b1f24" stroke-width="4.199999999999999" stroke-linecap="round" stroke-linejoin="round"/><circle cx="150" cy="300" r="7" fill="#1b1f24" stroke="#1b1f24" stroke-width="1"/><text x="150" y="340" font-family="Arial, Helvetica, sans-serif" font-size="20" font-weight="bold" fill="#8a6100" text-anchor="middle">tokens ×4</text>
<path d="M60 800 L1540 800" fill="none" stroke="#d8d5cf" stroke-width="2" stroke-linecap="round" stroke-linejoin="round"/>
<text x="60" y="852" font-family="Arial, Helvetica, sans-serif" font-size="30" font-weight="normal" fill="#1b1f24" text-anchor="start" font-style="italic">Hver sin sag, hvert sit skrivebord.</text>
</svg>
