<svg xmlns="http://www.w3.org/2000/svg" width="1600" height="900" viewBox="0 0 1600 900">
<title>Enterprise-adoption</title>
<defs><marker id="pil-acc" viewBox="0 0 10 10" refX="8" refY="5" markerWidth="4" markerHeight="4" orient="auto-start-reverse"><path d="M0 0 L10 5 L0 10 Z" fill="#1f4e8c"/></marker><marker id="pil-ink" viewBox="0 0 10 10" refX="8" refY="5" markerWidth="4" markerHeight="4" orient="auto-start-reverse"><path d="M0 0 L10 5 L0 10 Z" fill="#1b1f24"/></marker><marker id="pil-ok" viewBox="0 0 10 10" refX="8" refY="5" markerWidth="4" markerHeight="4" orient="auto-start-reverse"><path d="M0 0 L10 5 L0 10 Z" fill="#1e6b3a"/></marker><marker id="pil-fejl" viewBox="0 0 10 10" refX="8" refY="5" markerWidth="4" markerHeight="4" orient="auto-start-reverse"><path d="M0 0 L10 5 L0 10 Z" fill="#9b2c2c"/></marker><marker id="pil-daemp" viewBox="0 0 10 10" refX="8" refY="5" markerWidth="4" markerHeight="4" orient="auto-start-reverse"><path d="M0 0 L10 5 L0 10 Z" fill="#5b6470"/></marker><marker id="pil-adv" viewBox="0 0 10 10" refX="8" refY="5" markerWidth="4" markerHeight="4" orient="auto-start-reverse"><path d="M0 0 L10 5 L0 10 Z" fill="#8a6100"/></marker></defs>
<rect width="1600" height="900" fill="#fbfaf7"/>
<rect x="60" y="52" width="10" height="78" rx="5" fill="#1f4e8c" stroke="#1f4e8c" stroke-width="1"/>
<text x="92" y="82" font-family="Arial, Helvetica, sans-serif" font-size="24" font-weight="bold" fill="#1f4e8c" text-anchor="start" letter-spacing="2">MODUL 12</text>
<text x="92" y="126" font-family="Arial, Helvetica, sans-serif" font-size="44" font-weight="bold" fill="#1b1f24" text-anchor="start">Enterprise-adoption</text>
<text x="1540" y="82" font-family="Arial, Helvetica, sans-serif" font-size="22" font-weight="normal" fill="#5b6470" text-anchor="end">Agentkursus</text>
<rect x="155.0" y="244.0" width="90.0" height="81.0" rx="8" fill="#ffffff" stroke="#9b2c2c" stroke-width="5.4"/><rect x="155.0" y="244.0" width="90.0" height="21.6" rx="8" fill="#9b2c2c" stroke="#9b2c2c" stroke-width="1"/><rect x="155.0" y="254.8" width="90.0" height="10.8" rx="0" fill="#9b2c2c" stroke="#9b2c2c" stroke-width="1"/><path d="M177.5 230.5 V253.0 M222.5 230.5 V253.0" fill="none" stroke="#9b2c2c" stroke-width="5.4" stroke-linecap="round" stroke-linejoin="round"/><text x="200" y="299.8" font-family="Arial, Helvetica, sans-serif" font-size="21.6" font-weight="bold" fill="#1b1f24" text-anchor="middle">Man</text><text x="200" y="380" font-family="Arial, Helvetica, sans-serif" font-size="22" font-weight="bold" fill="#9b2c2c" text-anchor="middle">Hele afdelingen</text><circle cx="340" cy="233.5" r="8.25" fill="#f9e5e5" stroke="#9b2c2c" stroke-width="3.3000000000000003"/><path d="M323.5 272.0 V258.25 A16.5 16.5 0 0 1 356.5 258.25 V272.0 Z" fill="#f9e5e5" stroke="#9b2c2c" stroke-width="3.3000000000000003" stroke-linecap="round" stroke-linejoin="round"/><circle cx="402" cy="233.5" r="8.25" fill="#f9e5e5" stroke="#9b2c2c" stroke-width="3.3000000000000003"/><path d="M385.5 272.0 V258.25 A16.5 16.5 0 0 1 418.5 258.25 V272.0 Z" fill="#f9e5e5" stroke="#9b2c2c" stroke-width="3.3000000000000003" stroke-linecap="round" stroke-linejoin="round"/><circle cx="464" cy="233.5" r="8.25" fill="#f9e5e5" stroke="#9b2c2c" stroke-width="3.3000000000000003"/><path d="M447.5 272.0 V258.25 A16.5 16.5 0 0 1 480.5 258.25 V272.0 Z" fill="#f9e5e5" stroke="#9b2c2c" stroke-width="3.3000000000000003" stroke-linecap="round" stroke-linejoin="round"/><circle cx="526" cy="233.5" r="8.25" fill="#f9e5e5" stroke="#9b2c2c" stroke-width="3.3000000000000003"/><path d="M509.5 272.0 V258.25 A16.5 16.5 0 0 1 542.5 258.25 V272.0 Z" fill="#f9e5e5" stroke="#9b2c2c" stroke-width="3.3000000000000003" stroke-linecap="round" stroke-linejoin="round"/><circle cx="588" cy="233.5" r="8.25" fill="#f9e5e5" stroke="#9b2c2c" stroke-width="3.3000000000000003"/><path d="M571.5 272.0 V258.25 A16.5 16.5 0 0 1 604.5 258.25 V272.0 Z" fill="#f9e5e5" stroke="#9b2c2c" stroke-width="3.3000000000000003" stroke-linecap="round" stroke-linejoin="round"/><circle cx="650" cy="233.5" r="8.25" fill="#f9e5e5" stroke="#9b2c2c" stroke-width="3.3000000000000003"/><path d="M633.5 272.0 V258.25 A16.5 16.5 0 0 1 666.5 258.25 V272.0 Z" fill="#f9e5e5" stroke="#9b2c2c" stroke-width="3.3000000000000003" stroke-linecap="round" stroke-linejoin="round"/><circle cx="340" cy="318.5" r="8.25" fill="#f9e5e5" stroke="#9b2c2c" stroke-width="3.3000000000000003"/><path d="M323.5 357.0 V343.25 A16.5 16.5 0 0 1 356.5 343.25 V357.0 Z" fill="#f9e5e5" stroke="#9b2c2c" stroke-width="3.3000000000000003" stroke-linecap="round" stroke-linejoin="round"/><circle cx="402" cy="318.5" r="8.25" fill="#f9e5e5" stroke="#9b2c2c" stroke-width="3.3000000000000003"/><path d="M385.5 357.0 V343.25 A16.5 16.5 0 0 1 418.5 343.25 V357.0 Z" fill="#f9e5e5" stroke="#9b2c2c" stroke-width="3.3000000000000003" stroke-linecap="round" stroke-linejoin="round"/><circle cx="464" cy="318.5" r="8.25" fill="#f9e5e5" stroke="#9b2c2c" stroke-width="3.3000000000000003"/><path d="M447.5 357.0 V343.25 A16.5 16.5 0 0 1 480.5 343.25 V357.0 Z" fill="#f9e5e5" stroke="#9b2c2c" stroke-width="3.3000000000000003" stroke-linecap="round" stroke-linejoin="round"/><circle cx="526" cy="318.5" r="8.25" fill="#f9e5e5" stroke="#9b2c2c" stroke-width="3.3000000000000003"/><path d="M509.5 357.0 V343.25 A16.5 16.5 0 0 1 542.5 343.25 V357.0 Z" fill="#f9e5e5" stroke="#9b2c2c" stroke-width="3.3000000000000003" stroke-linecap="round" stroke-linejoin="round"/><circle cx="588" cy="318.5" r="8.25" fill="#f9e5e5" stroke="#9b2c2c" stroke-width="3.3000000000000003"/><path d="M571.5 357.0 V343.25 A16.5 16.5 0 0 1 604.5 343.25 V357.0 Z" fill="#f9e5e5" stroke="#9b2c2c" stroke-width="3.3000000000000003" stroke-linecap="round" stroke-linejoin="round"/><circle cx="650" cy="318.5" r="8.25" fill="#f9e5e5" stroke="#9b2c2c" stroke-width="3.3000000000000003"/><path d="M633.5 357.0 V343.25 A16.5 16.5 0 0 1 666.5 343.25 V357.0 Z" fill="#f9e5e5" stroke="#9b2c2c" stroke-width="3.3000000000000003" stroke-linecap="round" stroke-linejoin="round"/><path d="M800 210 L760 300 H795 L775 370 L840 270 H805 L825 210 Z" fill="#f9e5e5" stroke="#9b2c2c" stroke-width="4" stroke-linecap="round" stroke-linejoin="round"/><circle cx="880" cy="220" r="28" fill="#f9e5e5" stroke="#9b2c2c" stroke-width="4.800000000000001"/><path d="M868.24 208.24 L891.76 231.76 M891.76 208.24 L868.24 231.76" fill="none" stroke="#9b2c2c" stroke-width="5.4" stroke-linecap="round" stroke-linejoin="round"/><rect x="155.0" y="524.0" width="90.0" height="81.0" rx="8" fill="#ffffff" stroke="#1e6b3a" stroke-width="5.4"/><rect x="155.0" y="524.0" width="90.0" height="21.6" rx="8" fill="#1e6b3a" stroke="#1e6b3a" stroke-width="1"/><rect x="155.0" y="534.8" width="90.0" height="10.8" rx="0" fill="#1e6b3a" stroke="#1e6b3a" stroke-width="1"/><path d="M177.5 510.5 V533.0 M222.5 510.5 V533.0" fill="none" stroke="#1e6b3a" stroke-width="5.4" stroke-linecap="round" stroke-linejoin="round"/><text x="200" y="579.8" font-family="Arial, Helvetica, sans-serif" font-size="21.6" font-weight="bold" fill="#1b1f24" text-anchor="middle">6 uger</text><text x="200" y="660" font-family="Arial, Helvetica, sans-serif" font-size="22" font-weight="bold" fill="#1e6b3a" text-anchor="middle">Tre disponenter</text><circle cx="340" cy="539.0" r="10.5" fill="#e4f2e8" stroke="#1e6b3a" stroke-width="4.199999999999999"/><path d="M319.0 588.0 V570.5 A21.0 21.0 0 0 1 361.0 570.5 V588.0 Z" fill="#e4f2e8" stroke="#1e6b3a" stroke-width="4.199999999999999" stroke-linecap="round" stroke-linejoin="round"/><circle cx="410" cy="539.0" r="10.5" fill="#e4f2e8" stroke="#1e6b3a" stroke-width="4.199999999999999"/><path d="M389.0 588.0 V570.5 A21.0 21.0 0 0 1 431.0 570.5 V588.0 Z" fill="#e4f2e8" stroke="#1e6b3a" stroke-width="4.199999999999999" stroke-linecap="round" stroke-linejoin="round"/><circle cx="480" cy="539.0" r="10.5" fill="#e4f2e8" stroke="#1e6b3a" stroke-width="4.199999999999999"/><path d="M459.0 588.0 V570.5 A21.0 21.0 0 0 1 501.0 570.5 V588.0 Z" fill="#e4f2e8" stroke="#1e6b3a" stroke-width="4.199999999999999" stroke-linecap="round" stroke-linejoin="round"/><path d="M580 560 L700 560" fill="none" stroke="#1e6b3a" stroke-width="5" stroke-linecap="round" stroke-linejoin="round" marker-end="url(#pil-ok)"/><circle cx="740" cy="515.0" r="7.5" fill="#e4f2e8" stroke="#1e6b3a" stroke-width="3.0"/><path d="M725.0 550.0 V537.5 A15.0 15.0 0 0 1 755.0 537.5 V550.0 Z" fill="#e4f2e8" stroke="#1e6b3a" stroke-width="3.0" stroke-linecap="round" stroke-linejoin="round"/><circle cx="795" cy="515.0" r="7.5" fill="#e4f2e8" stroke="#1e6b3a" stroke-width="3.0"/><path d="M780.0 550.0 V537.5 A15.0 15.0 0 0 1 810.0 537.5 V550.0 Z" fill="#e4f2e8" stroke="#1e6b3a" stroke-width="3.0" stroke-linecap="round" stroke-linejoin="round"/><circle cx="850" cy="515.0" r="7.5" fill="#e4f2e8" stroke="#1e6b3a" stroke-width="3.0"/><path d="M835.0 550.0 V537.5 A15.0 15.0 0 0 1 865.0 537.5 V550.0 Z" fill="#e4f2e8" stroke="#1e6b3a" stroke-width="3.0" stroke-linecap="round" stroke-linejoin="round"/><circle cx="905" cy="515.0" r="7.5" fill="#e4f2e8" stroke="#1e6b3a" stroke-width="3.0"/><path d="M890.0 550.0 V537.5 A15.0 15.0 0 0 1 920.0 537.5 V550.0 Z" fill="#e4f2e8" stroke="#1e6b3a" stroke-width="3.0" stroke-linecap="round" stroke-linejoin="round"/><circle cx="960" cy="515.0" r="7.5" fill="#e4f2e8" stroke="#1e6b3a" stroke-width="3.0"/><path d="M945.0 550.0 V537.5 A15.0 15.0 0 0 1 975.0 537.5 V550.0 Z" fill="#e4f2e8" stroke="#1e6b3a" stroke-width="3.0" stroke-linecap="round" stroke-linejoin="round"/><circle cx="1015" cy="515.0" r="7.5" fill="#e4f2e8" stroke="#1e6b3a" stroke-width="3.0"/><path d="M1000.0 550.0 V537.5 A15.0 15.0 0 0 1 1030.0 537.5 V550.0 Z" fill="#e4f2e8" stroke="#1e6b3a" stroke-width="3.0" stroke-linecap="round" stroke-linejoin="round"/><circle cx="740" cy="590.0" r="7.5" fill="#e4f2e8" stroke="#1e6b3a" stroke-width="3.0"/><path d="M725.0 625.0 V612.5 A15.0 15.0 0 0 1 755.0 612.5 V625.0 Z" fill="#e4f2e8" stroke="#1e6b3a" stroke-width="3.0" stroke-linecap="round" stroke-linejoin="round"/><circle cx="795" cy="590.0" r="7.5" fill="#e4f2e8" stroke="#1e6b3a" stroke-width="3.0"/><path d="M780.0 625.0 V612.5 A15.0 15.0 0 0 1 810.0 612.5 V625.0 Z" fill="#e4f2e8" stroke="#1e6b3a" stroke-width="3.0" stroke-linecap="round" stroke-linejoin="round"/><circle cx="850" cy="590.0" r="7.5" fill="#e4f2e8" stroke="#1e6b3a" stroke-width="3.0"/><path d="M835.0 625.0 V612.5 A15.0 15.0 0 0 1 865.0 612.5 V625.0 Z" fill="#e4f2e8" stroke="#1e6b3a" stroke-width="3.0" stroke-linecap="round" stroke-linejoin="round"/><circle cx="905" cy="590.0" r="7.5" fill="#e4f2e8" stroke="#1e6b3a" stroke-width="3.0"/><path d="M890.0 625.0 V612.5 A15.0 15.0 0 0 1 920.0 612.5 V625.0 Z" fill="#e4f2e8" stroke="#1e6b3a" stroke-width="3.0" stroke-linecap="round" stroke-linejoin="round"/><circle cx="960" cy="590.0" r="7.5" fill="#e4f2e8" stroke="#1e6b3a" stroke-width="3.0"/><path d="M945.0 625.0 V612.5 A15.0 15.0 0 0 1 975.0 612.5 V625.0 Z" fill="#e4f2e8" stroke="#1e6b3a" stroke-width="3.0" stroke-linecap="round" stroke-linejoin="round"/><circle cx="1015" cy="590.0" r="7.5" fill="#e4f2e8" stroke="#1e6b3a" stroke-width="3.0"/><path d="M1000.0 625.0 V612.5 A15.0 15.0 0 0 1 1030.0 612.5 V625.0 Z" fill="#e4f2e8" stroke="#1e6b3a" stroke-width="3.0" stroke-linecap="round" stroke-linejoin="round"/><circle cx="1080" cy="500" r="28" fill="#e4f2e8" stroke="#1e6b3a" stroke-width="4.800000000000001"/><path d="M1067.4 500 L1077.2 509.8 L1094.0 490.2" fill="none" stroke="#1e6b3a" stroke-width="5.4" stroke-linecap="round" stroke-linejoin="round"/><text x="880" y="680" font-family="Arial, Helvetica, sans-serif" font-size="20" font-weight="normal" fill="#5b6470" text-anchor="middle">så alle</text><text x="1330" y="235" font-family="Arial, Helvetica, sans-serif" font-size="22" font-weight="bold" fill="#1f4e8c" text-anchor="middle">Fem felter i lærredet</text><rect x="1190" y="270" width="280" height="84" rx="10" fill="#ffffff" stroke="#1f4e8c" stroke-width="2"/><circle cx="1219.0" cy="312" r="15.399999999999999" fill="#e8eef8" stroke="#1f4e8c" stroke-width="4.199999999999999"/><path d="M1234.4 312 H1282.0 V324.6 M1266.6 312 V321.8" fill="none" stroke="#1f4e8c" stroke-width="4.199999999999999" stroke-linecap="round" stroke-linejoin="round"/><text x="1300" y="320" font-family="Arial, Helvetica, sans-serif" font-size="22" font-weight="bold" fill="#1b1f24" text-anchor="start">Permissions</text><rect x="1190" y="370" width="280" height="84" rx="10" fill="#ffffff" stroke="#1f4e8c" stroke-width="2"/><path d="M1212.0 387.5 V436.5 A28.0 9.799999999999999 0 0 0 1268.0 436.5 V387.5" fill="#e8eef8" stroke="#1f4e8c" stroke-width="4.199999999999999" stroke-linecap="round" stroke-linejoin="round"/><path d="M1212.0 387.5 A28.0 9.799999999999999 0 0 0 1268.0 387.5 A28.0 9.799999999999999 0 0 0 1212.0 387.5" fill="#ffffff" stroke="#1f4e8c" stroke-width="4.199999999999999" stroke-linecap="round" stroke-linejoin="round"/><path d="M1212.0 412 A28.0 9.799999999999999 0 0 0 1268.0 412" fill="none" stroke="#1f4e8c" stroke-width="2.9399999999999995" stroke-linecap="round" stroke-linejoin="round"/><text x="1300" y="420" font-family="Arial, Helvetica, sans-serif" font-size="22" font-weight="bold" fill="#1b1f24" text-anchor="start">Data</text><rect x="1190" y="470" width="280" height="84" rx="10" fill="#ffffff" stroke="#1f4e8c" stroke-width="2"/><rect x="1229.2" y="486.0" width="21.599999999999998" height="21.0" rx="6" fill="#e4f2e8" stroke="#1e6b3a" stroke-width="3.5999999999999996"/><path d="M1210.0 507.0 H1270.0 V522 H1210.0 Z" fill="#e4f2e8" stroke="#1e6b3a" stroke-width="3.5999999999999996" stroke-linecap="round" stroke-linejoin="round"/><rect x="1207.0" y="534.0" width="66.0" height="16.8" rx="4" fill="#e4f2e8" stroke="#1e6b3a" stroke-width="2.5199999999999996"/><text x="1300" y="520" font-family="Arial, Helvetica, sans-serif" font-size="22" font-weight="bold" fill="#1b1f24" text-anchor="start">Godkendelse</text><rect x="1190" y="570" width="280" height="84" rx="10" fill="#ffffff" stroke="#1f4e8c" stroke-width="2"/><path d="M1198.0 605.0 L1240 584.0 L1282.0 605.0 L1240 626.0 Z" fill="#e8eef8" stroke="#1f4e8c" stroke-width="4.199999999999999" stroke-linecap="round" stroke-linejoin="round"/><path d="M1215.5 613.4 V633.0 A24.5 14.0 0 0 0 1264.5 633.0 V613.4" fill="none" stroke="#1f4e8c" stroke-width="4.199999999999999" stroke-linecap="round" stroke-linejoin="round"/><path d="M1282.0 605.0 V633.0" fill="none" stroke="#1f4e8c" stroke-width="2.9399999999999995" stroke-linecap="round" stroke-linejoin="round"/><text x="1300" y="620" font-family="Arial, Helvetica, sans-serif" font-size="22" font-weight="bold" fill="#1b1f24" text-anchor="start">Kompetence</text><rect x="1190" y="670" width="280" height="84" rx="10" fill="#ffffff" stroke="#1f4e8c" stroke-width="2"/><path d="M1240 680.5 L1268.0 691.0 V712 A28.0 35.0 0 0 1 1240 747.0 A28.0 35.0 0 0 1 1212.0 712 V691.0 Z" fill="#e8eef8" stroke="#1f4e8c" stroke-width="4.199999999999999" stroke-linecap="round" stroke-linejoin="round"/><text x="1300" y="720" font-family="Arial, Helvetica, sans-serif" font-size="22" font-weight="bold" fill="#1b1f24" text-anchor="start">Tillid</text>
<path d="M60 800 L1540 800" fill="none" stroke="#d8d5cf" stroke-width="2" stroke-linecap="round" stroke-linejoin="round"/>
<text x="60" y="852" font-family="Arial, Helvetica, sans-serif" font-size="30" font-weight="normal" fill="#1b1f24" text-anchor="start" font-style="italic">Tre disponenter i seks uger slår hele afdelingen mandag.</text>
</svg>
